<svg width="272" height="48" viewBox="0 0 272 48" fill="none" xmlns="http://www.w3.org/2000/svg">
<path d="M59.9642 34.7721L65.2381 34.696C65.2381 38.3915 67.0467 39.5856 71.8582 39.5856C76.2853 39.5856 78.3242 38.3545 78.3242 36.0834C78.3242 34.1205 77.7076 33.3889 72.9352 32.7353L69.4329 32.2358C63.4664 31.4281 59.9251 29.3481 59.9251 24.2674C59.9251 19.1867 64.122 16.4532 71.2416 16.3771C79.0558 16.4532 82.8273 19.7252 82.5971 25.5376L77.4013 25.5767C77.4013 22.1895 75.2844 21.0735 71.2806 21.0735C67.0077 21.0735 64.9688 22.1895 64.9688 24.1914C64.9688 26.1933 65.7766 26.7708 70.0105 27.3853L73.7059 27.8848C80.289 28.8467 83.522 31.1178 83.522 36.1224C83.522 41.1271 79.4032 44.3601 71.8972 44.3601H71.8582C63.3122 44.3601 59.6559 40.7037 59.9642 34.7762V34.7721Z" fill="#515151"/>
<path d="M84.9464 24.5346H89.988L93.8766 36.5067L98.1886 24.5346H102.231L106.428 36.4677L110.317 24.5346H115.283L108.508 43.8976H104.466L100.077 31.6562L95.7284 43.8976H91.6857L84.9505 24.5346H84.9464Z" fill="#515151"/>
<path d="M122.862 16.9506H118.166V21.9552H122.862V16.9506Z" fill="#6C63FF"/>
<path d="M122.86 24.5346H118.203V43.8976H122.86V24.5346Z" fill="#515151"/>
<path d="M128.905 37.4666V28.9207H125.787V24.6477H128.905V17.8734H133.562V24.6477H139.568V28.9207H133.562V37.7358C133.562 40.6235 136.873 39.9309 139.221 39.4294L140.376 43.2399C138.029 44.0107 136.834 44.2409 135.332 44.2409C130.521 44.2409 129.057 41.3922 128.903 37.4666H128.905Z" fill="#515151"/>
<path d="M151.577 44.3189C144.994 44.3189 140.953 40.4303 140.953 34.1185C140.953 27.8066 145.226 23.8399 151.692 23.8399C157.581 23.8399 161.547 26.9968 162.162 32.4619H157.426C156.964 29.6523 154.732 28.1889 151.575 28.1889C147.571 28.1889 145.724 30.384 145.724 34.0794C145.724 37.7748 147.571 39.9309 151.575 39.9309C155.04 39.9309 157.003 38.2373 157.426 35.6579H162.238C161.313 41.5854 157.079 44.3189 151.575 44.3189H151.577Z" fill="#515151"/>
<path d="M165.165 16.9506H169.822V25.9589C171.631 24.4956 173.787 23.842 176.097 23.842C181.293 23.842 184.026 26.5365 184.026 31.2719V43.8976H179.33V32.3119C179.33 29.6564 178.522 28.2691 175.634 28.2691C172.477 28.2691 169.822 29.9627 169.822 32.8504V43.8976H165.165V16.9526V16.9506Z" fill="#515151"/>
<path d="M186.914 16.9506H191.226L205.699 35.4277V16.9506H210.626V43.8955H206.353L191.84 25.5335V43.8955H186.914V16.9506Z" fill="#515151"/>
<path d="M224.02 23.8399C230.486 23.8399 234.683 27.6895 234.644 34.0404L234.605 35.6949H218.323C218.592 38.2743 220.479 39.9288 223.905 39.9288C226.947 39.9288 228.641 38.8889 229.333 36.926H234.338C233.029 41.9307 229.064 44.3169 223.907 44.3169C217.324 44.3169 213.283 40.4283 213.283 34.1164C213.283 27.8046 217.556 23.8379 224.022 23.8379L224.02 23.8399ZM223.905 28.191C220.787 28.191 218.709 29.5763 218.555 32.1166H229.372C229.142 29.6153 227.101 28.191 223.907 28.191H223.905Z" fill="#515151"/>
<path d="M246.193 39.9699C249.042 39.9699 250.735 39.5075 250.735 38.0462C250.735 37.0452 250.351 36.1984 247.155 35.7751L244.923 35.4668C239.612 34.7741 237.187 33.6191 237.187 29.8476C237.187 26.0761 240.498 23.842 245.963 23.842C251.428 23.842 254.546 26.2282 254.969 29.9627H250.312C250.158 28.6164 248.694 28.154 245.963 28.115C243.498 28.154 241.766 28.6925 241.766 29.8866C241.766 30.9266 242.343 31.5041 245.192 31.8885L247.732 32.1968C253.121 32.8504 255.468 34.1986 255.468 38.0482C255.468 41.8978 252.196 44.284 246.191 44.3231C240.224 44.284 237.454 41.8217 237.221 37.779H241.957C242.111 39.2423 243.342 39.935 246.191 39.974L246.193 39.9699Z" fill="#515151"/>
<path d="M260.358 37.4666V28.9207H257.24V24.6477H260.358V17.8734H265.015V24.6477H271.021V28.9207H265.015V37.7358C265.015 40.6235 268.326 39.9309 270.674 39.4294L271.829 43.2399C269.481 44.0107 268.287 44.2409 266.785 44.2409C261.973 44.2409 260.51 41.3922 260.356 37.4666H260.358Z" fill="#515151"/>
<path d="M47.4124 21.6983L25.2111 0.41774C24.6315 -0.139247 23.7148 -0.139247 23.1352 0.41774L0.911266 21.7209C0.440602 22.1916 0.171356 22.839 0.171356 23.5008C0.171356 24.8799 1.29355 26.0001 2.6706 26.0001H6.17078V44.0004C6.17078 46.2098 7.96094 48 10.1704 48H38.1718C40.3813 48 42.1714 46.2098 42.1714 44.0004V26.0001H45.6716C47.0507 26.0001 48.1708 24.8779 48.1708 23.5008C48.1708 22.839 47.9016 22.1916 47.4083 21.6983H47.4124Z" fill="#6C63FF"/>
<path d="M37.4319 21.7702L33.6029 22.7773C33.4446 22.8184 33.3912 23.0158 33.5063 23.1329L34.2914 23.9263C34.3818 24.0167 34.3716 24.1667 34.2708 24.2448C33.3973 24.9169 32.4252 25.4287 31.4242 25.5191C31.303 25.5294 31.2002 25.4369 31.1941 25.3156C31.1879 25.182 31.1797 25.0546 31.1714 24.9313C30.9967 22.5163 30.0801 19.7889 28.6722 19.2443C27.622 18.8394 26.5922 19.3121 26.1092 20.422C25.727 21.2975 25.764 22.3848 26.21 23.4022C26.5696 24.2222 27.3712 25.3835 29.1449 26.2446C29.3813 26.3597 29.6218 26.4522 29.8643 26.5242C29.9588 26.5529 30.0225 26.6434 30.0143 26.742C29.8663 28.9371 29.0607 32.0221 25.9674 33.7691C23.1722 35.3476 20.2393 35.623 17.7072 34.5419C17.1132 34.287 16.5583 33.9664 16.0609 33.5944C15.9602 33.5183 15.9458 33.3724 16.0321 33.2799C16.9755 32.2584 17.5756 31.0027 17.2488 29.5372C16.9118 28.0245 16.0794 26.929 15.0271 26.6105C14.3283 26.3988 13.6048 26.5653 13.091 27.0565C12.349 27.7676 12.1373 29.0111 12.5114 30.4703C12.7642 31.4589 13.2801 32.4064 13.9912 33.2409C14.0734 33.3354 14.0529 33.4813 13.9521 33.5533C13.054 34.1904 12.051 34.6816 10.9987 35.1359C10.6575 35.2838 10.5403 35.7072 10.7561 36.0073C10.7582 36.0114 10.7603 36.0135 10.7623 36.0176C10.9206 36.2375 11.2124 36.3156 11.4632 36.2087C12.6594 35.6929 13.8165 35.1133 14.8544 34.3322C14.9325 34.2726 15.0415 34.2747 15.1175 34.3363C15.7505 34.8481 16.4699 35.2838 17.2488 35.6147C18.8047 36.2786 20.488 36.4965 22.198 36.2765C23.6449 36.0895 25.1104 35.5901 26.5409 34.7844C28.3249 33.7773 29.6279 32.2687 30.411 30.3059C30.8837 29.12 31.0975 27.9361 31.1735 26.89C31.1817 26.7852 31.266 26.7009 31.3708 26.6947C32.5793 26.6207 33.8475 26.0658 35.132 25.0443C35.2183 24.9765 35.3396 24.9827 35.4177 25.0608L36.2933 25.9446C36.4084 26.0617 36.6077 26.0083 36.6509 25.85L37.6929 22.0313C37.7361 21.873 37.5922 21.7271 37.434 21.7702H37.4319ZM29.7081 25.2231C29.6896 25.2149 29.6711 25.2067 29.6526 25.1964C27.0382 23.9242 26.7464 21.8771 27.1759 20.8885C27.2602 20.6953 27.4699 20.3254 27.8542 20.276C27.9713 20.2617 28.1029 20.276 28.2509 20.3336C28.8469 20.5638 29.817 22.3642 30.0102 25.0176C30.0205 25.1779 29.854 25.293 29.7081 25.2252V25.2231ZM14.8688 32.4784C14.2769 31.7816 13.8473 30.9965 13.6397 30.1805C13.3767 29.1549 13.4733 28.302 13.8967 27.8971C14.02 27.7799 14.1659 27.7101 14.3242 27.6895C14.4413 27.6751 14.5626 27.6854 14.6879 27.7244C15.1874 27.8765 15.8225 28.4972 16.1102 29.79C16.3363 30.7992 15.8985 31.7097 15.1874 32.4845C15.1011 32.5791 14.951 32.575 14.8688 32.4784Z" fill="white"/>
<path d="M21.6821 20.3315C22.2103 20.0664 23.0571 20.6809 23.5709 21.7044C24.0848 22.728 24.0745 23.7741 23.5463 24.0392C23.0181 24.3044 22.1733 23.6898 21.6575 22.6663C21.1416 21.6428 21.1539 20.5966 21.6821 20.3315Z" fill="white"/>
<path d="M17.6948 22.3334C18.2231 22.0682 19.0678 22.6828 19.5837 23.7063C20.0975 24.7299 20.0872 25.776 19.559 26.0411C19.0308 26.3063 18.184 25.6917 17.6702 24.6682C17.1564 23.6426 17.1666 22.5985 17.6969 22.3334H17.6948Z" fill="white"/>
</svg>
