<svg width="212" height="120" viewBox="0 0 212 120" fill="none" xmlns="http://www.w3.org/2000/svg">
<path d="M62.5535 48.8713L59.543 59.1609L58.0212 64.2227C55.7726 71.5253 51.7091 75.999 47.3213 75.999H13.776C13.776 75.999 15.46 74.274 16.9076 72.844L24.0969 48.9455L23.4639 45.9858H61.6998C62.0593 45.9858 62.3777 46.3453 62.5574 46.949C62.7372 47.5526 62.7372 48.2696 62.5574 48.8713H62.5535ZM51.3848 52.4991C51.3496 52.4112 51.293 52.3643 51.2363 52.3643H33.0131L32.6224 53.6635L32.6146 53.6889L32.1281 55.3084L30.1863 61.7651L30.0847 62.1031L27.8322 69.5893H42.8202C45.0239 69.5893 47.0595 67.3172 48.1692 63.6269L50.7772 54.9431L51.3965 52.884C51.4336 52.7609 51.4317 52.6144 51.3867 52.4991H51.3848Z" fill="#1B1B1B"/>
<path d="M69.8873 69.5873H90.6834L88.0187 75.999H58.0133H55.6026C55.6026 75.999 57.3374 74.3717 58.9628 72.844V72.8401L62.112 62.3785L66.1325 48.9514L65.4956 45.9819H77.0551C78.4382 45.9819 79.9035 45.9858 81.4116 45.9878V45.9819H91.1601L104.294 45.9663L99.963 56.6974C99.963 56.6974 100.629 52.2393 94.0475 52.3585H75.082L74.1247 55.5331L73.4429 57.7915C74.0368 57.7973 74.3611 57.7856 75.9865 57.7915C77.5962 57.8012 79.0634 57.7856 80.5266 57.7915C85.8444 57.8227 89.0756 57.7876 89.4585 57.7915L86.8544 64.1856H71.5147L69.8854 69.5854L69.8873 69.5873Z" fill="#1B1B1B"/>
<path d="M144.652 45.9702L140.59 55.3338C140.59 55.3338 140.125 52.4484 136.544 52.3624H117.379L115.312 57.7973C115.906 57.8032 131.322 57.7934 131.707 57.7973L129.158 64.1895H112.954L108.385 75.999H97.6011L108.395 48.9319L107.764 45.9858H109.282L109.288 45.9702H119.302L119.296 45.9858H119.317C120.701 45.9858 122.166 45.9898 123.674 45.9917V45.9858H133.422L144.65 45.9702H144.652Z" fill="#1B1B1B"/>
<path d="M184.046 48.8635L182.048 55.5038L178.578 67.0379L177.677 70.0308L175.882 75.999H162.986C162.986 75.999 166.128 74.5768 166.901 72.7893L167.823 69.7202L169.474 64.2169H150.934L147.393 75.9971H134.591C134.591 75.9971 137.193 75.2254 138.396 72.842L148.455 45.9819H183.186C183.546 45.9819 183.868 46.3414 184.046 46.9451C184.226 47.5487 184.226 48.2657 184.04 48.8635H184.046ZM172.866 52.6203C172.834 52.5148 172.776 52.4484 172.713 52.4484H154.48L152.876 57.7719L171.406 57.809L172.864 52.9661C172.897 52.8567 172.899 52.7258 172.864 52.6203H172.866Z" fill="#1B1B1B"/>
<path d="M197.899 45.9878L192.411 64.1934L188.85 76.001L177.902 75.958C177.902 75.958 178.98 74.2603 179.859 72.842L187.047 48.9475L186.414 45.9878H197.899Z" fill="#1B1B1B"/>
<path d="M132.89 81.2444V83.8681C132.89 84.7472 133.255 85.1575 133.812 85.1575C134.404 85.1575 134.759 84.7511 134.759 83.8681V81.2444H135.582V83.8134C135.582 85.1985 134.869 85.8158 133.782 85.8158C132.696 85.8158 132.069 85.2336 132.069 83.8173V81.2424H132.892L132.89 81.2444Z" fill="#1B1B1B"/>
<path d="M139.188 85.7435V81.2444H140.128L141.29 83.1745C141.587 83.6708 141.849 84.1943 142.056 84.6827L142.072 84.6788C142.013 84.081 141.997 83.5027 141.997 82.8151V81.2444H142.757V85.7435H141.905L140.731 83.7645C140.444 83.2703 140.145 82.7233 139.925 82.2134L139.903 82.2173C139.936 82.8014 139.946 83.3953 139.946 84.1338V85.7435H139.186H139.188Z" fill="#1B1B1B"/>
<path d="M146.371 81.2444H147.194V85.0539H149.044V85.7435H146.371V81.2444Z" fill="#1B1B1B"/>
<path d="M154.85 83.7489H153.154V85.0695H155.049V85.7455H152.332V81.2463H154.95V81.9223H153.152V83.0788H154.848V83.7489H154.85Z" fill="#1B1B1B"/>
<path d="M159.341 84.4717L158.958 85.7435H158.109L159.552 81.2444H160.599L162.061 85.7435H161.178L160.771 84.4717H159.341ZM160.635 83.8505L160.279 82.7428C160.193 82.4634 160.119 82.1587 160.051 81.8969H160.035C159.968 82.1606 159.9 82.4732 159.822 82.7389L159.474 83.8505H160.633H160.635Z" fill="#1B1B1B"/>
<path d="M165.339 84.8468C165.605 84.9992 166.007 85.134 166.425 85.134C166.949 85.134 167.244 84.8879 167.244 84.5206C167.244 84.1807 167.015 83.9814 166.447 83.7743C165.704 83.5106 165.23 83.112 165.23 82.4674C165.23 81.7308 165.845 81.176 166.822 81.176C167.31 81.176 167.666 81.2796 167.9 81.3987L167.703 82.061C167.541 81.975 167.226 81.8481 166.804 81.8481C166.282 81.8481 166.062 82.1255 166.062 82.3892C166.062 82.735 166.322 82.8971 166.923 83.1257C167.705 83.4246 168.08 83.8173 168.08 84.4639C168.08 85.1868 167.535 85.8158 166.374 85.8158C165.898 85.8158 165.403 85.681 165.157 85.5306L165.339 84.8508V84.8468Z" fill="#1B1B1B"/>
<path d="M172.311 81.2444V83.0437H174.212V81.2444H175.035V85.7435H174.212V83.7587H172.311V85.7435H171.489V81.2444H172.311Z" fill="#1B1B1B"/>
<path d="M179.467 81.2444V85.7435H178.645V81.2444H179.467Z" fill="#1B1B1B"/>
<path d="M183.078 85.7435V81.2444H184.017L185.18 83.1745C185.477 83.6708 185.738 84.1943 185.946 84.6827L185.961 84.6788C185.903 84.081 185.887 83.5027 185.887 82.8151V81.2444H186.647V85.7435H185.795L184.621 83.7645C184.334 83.2703 184.035 82.7233 183.814 82.2134L183.793 82.2173C183.826 82.8014 183.836 83.3953 183.836 84.1338V85.7435H183.076H183.078Z" fill="#1B1B1B"/>
<path d="M193.869 85.5384C193.578 85.6419 193.019 85.7885 192.42 85.7885C191.66 85.7885 191.082 85.597 190.658 85.1887C190.257 84.8058 190.025 84.2158 190.027 83.536C190.03 82.1098 191.044 81.1995 192.533 81.1995C193.086 81.1995 193.518 81.3108 193.727 81.4104L193.545 82.0727C193.301 81.9653 192.998 81.8813 192.521 81.8813C191.564 81.8813 190.886 82.4498 190.886 83.4949C190.886 84.5401 191.517 85.1223 192.449 85.1223C192.746 85.1223 192.965 85.0832 193.07 85.0324V83.9091H192.277V83.2644H193.867V85.5404L193.869 85.5384Z" fill="#1B1B1B"/>
<path d="M132.091 90.104H134.693V90.7799H132.913V92.0205H134.568V92.6906H132.913V94.6012H132.091V90.1021V90.104Z" fill="#1B1B1B"/>
<path d="M138.156 90.1665C138.469 90.1099 138.926 90.0708 139.403 90.0708C140.048 90.0708 140.487 90.1802 140.79 90.4342C141.038 90.6393 141.179 90.9519 141.179 91.3387C141.179 91.9189 140.784 92.3135 140.36 92.462V92.4816C140.686 92.6046 140.876 92.9152 140.987 93.3528C141.13 93.9155 141.253 94.4312 141.343 94.6071H140.499C140.429 94.4762 140.321 94.105 140.196 93.5463C140.067 92.9602 139.854 92.7687 139.387 92.759H138.973V94.6071H138.158V90.1704L138.156 90.1665ZM138.971 92.1514H139.458C140.014 92.1514 140.358 91.8583 140.358 91.411C140.358 90.9206 140.012 90.692 139.481 90.6901C139.221 90.6901 139.053 90.7096 138.971 90.7311V92.1514Z" fill="#1B1B1B"/>
<path d="M148.614 92.3096C148.614 93.8159 147.702 94.6774 146.461 94.6774C145.221 94.6774 144.387 93.7065 144.387 92.3897C144.387 91.073 145.26 90.0317 146.528 90.0317C147.796 90.0317 148.614 91.0242 148.614 92.3096ZM145.254 92.3722C145.254 93.2904 145.717 94.019 146.502 94.019C147.288 94.019 147.745 93.2806 147.745 92.3389C147.745 91.4891 147.323 90.6882 146.504 90.6882C145.686 90.6882 145.254 91.4481 145.254 92.3722Z" fill="#1B1B1B"/>
<path d="M155.788 92.7687C155.76 92.1885 155.731 91.4891 155.733 90.8757H155.715C155.567 91.4266 155.379 92.0342 155.184 92.6046L154.524 94.5524H153.891L153.295 92.632C153.119 92.0537 152.957 91.4442 152.84 90.8776H152.824C152.805 91.4657 152.777 92.1846 152.744 92.798L152.644 94.6071H151.879L152.177 90.1079H153.258L153.844 91.915C154.006 92.4464 154.151 92.9797 154.258 93.4818H154.278C154.399 92.9895 154.553 92.4405 154.727 91.9111L155.35 90.1079H156.417L156.675 94.6071H155.874L155.786 92.7707L155.788 92.7687Z" fill="#1B1B1B"/>
<path d="M164.718 94.6032L163.618 90.104H164.495L164.925 92.1475C165.036 92.6945 165.142 93.2669 165.218 93.7123H165.233C165.306 93.2415 165.429 92.7043 165.56 92.1377L166.044 90.104H166.91L167.355 92.1748C167.464 92.7062 167.56 93.2083 167.629 93.6967H167.642C167.722 93.1985 167.83 92.6867 167.947 92.1377L168.416 90.106H169.254L168.041 94.6051H167.164L166.699 92.4854C166.585 91.9775 166.503 91.5477 166.445 91.0613H166.431C166.355 91.5438 166.269 91.9736 166.134 92.4854L165.61 94.6032H164.722H164.718Z" fill="#1B1B1B"/>
<path d="M173.282 90.104V94.6032H172.46V90.104H173.282Z" fill="#1B1B1B"/>
<path d="M177.758 90.7956H176.472V90.106H179.876V90.7956H178.578V94.6032H177.756V90.7956H177.758Z" fill="#1B1B1B"/>
<path d="M183.891 90.104V91.9033H185.791V90.104H186.614V94.6032H185.791V92.6183H183.891V94.6032H183.068V90.104H183.891Z" fill="#1B1B1B"/>
<path d="M191.046 90.104V94.6032H190.224V90.104H191.046Z" fill="#1B1B1B"/>
<path d="M194.655 94.6032V90.104H195.594L196.757 92.0342C197.054 92.5304 197.315 93.054 197.523 93.5424L197.538 93.5384C197.48 92.9406 197.464 92.3624 197.464 91.6747V90.104H198.224V94.6032H197.372L196.198 92.6242C195.911 92.1299 195.612 91.5829 195.391 91.073L195.37 91.0769C195.403 91.661 195.413 92.2549 195.413 92.9934V94.6032H194.653H194.655Z" fill="#1B1B1B"/>
<path d="M111.495 21.9154L107.616 27.0944L119.56 33.9906V40.164H125.987V30.2807L111.495 21.9154Z" fill="url(#paint0_linear_2131_1414)"/>
<path d="M42.4825 33.9906L81.0212 11.7411L102.011 23.8593L105.891 18.6783L81.0212 4.32129L36.0571 30.2808V40.164H42.4825V33.9906Z" fill="url(#paint1_linear_2131_1414)"/>
<path d="M119.56 81.1741V87.3475L81.2517 109.466L81.0583 116.997L125.987 91.0593V81.1741H119.56Z" fill="url(#paint2_linear_2131_1414)"/>
<path d="M74.9083 106.069L42.4825 87.3474V81.1741H36.0571V91.0593L74.7228 113.381L74.9083 106.069Z" fill="url(#paint3_linear_2131_1414)"/>
<defs>
<linearGradient id="paint0_linear_2131_1414" x1="112.171" y1="10.4419" x2="119.925" y2="40.9982" gradientUnits="userSpaceOnUse">
<stop stop-color="#952F3B"/>
<stop offset="1" stop-color="#C0282F"/>
</linearGradient>
<linearGradient id="paint1_linear_2131_1414" x1="138.068" y1="159.74" x2="39.5736" y2="-31.5683" gradientUnits="userSpaceOnUse">
<stop stop-color="#FF1CF7"/>
<stop offset="1" stop-color="#00F0FF"/>
</linearGradient>
<linearGradient id="paint2_linear_2131_1414" x1="139.051" y1="168.092" x2="40.5543" y2="-23.2166" gradientUnits="userSpaceOnUse">
<stop stop-color="#FF1CF7"/>
<stop offset="1" stop-color="#00F0FF"/>
</linearGradient>
<linearGradient id="paint3_linear_2131_1414" x1="101.29" y1="187.534" x2="2.79311" y2="-3.77635" gradientUnits="userSpaceOnUse">
<stop stop-color="#FF1CF7"/>
<stop offset="1" stop-color="#00F0FF"/>
</linearGradient>
</defs>
</svg>
