<svg width="100" height="100" viewBox="0 0 100 100" fill="none" xmlns="http://www.w3.org/2000/svg">
<path d="M50 99.5059C77.3414 99.5059 99.5059 77.3413 99.5059 50C99.5059 22.6587 77.3414 0.494164 50 0.494164C22.6587 0.494164 0.494171 22.6587 0.494171 50C0.494171 77.3413 22.6587 99.5059 50 99.5059Z" fill="#F2F7FF"/>
<path d="M50 100C22.4299 100 0 77.57 0 50C0 22.43 22.43 0 50 0C77.57 0 100 22.43 100 50C100 77.57 77.57 100 50 100ZM50 0.988322C22.9749 0.988322 0.988322 22.9749 0.988322 50C0.988322 77.0251 22.9749 99.0117 50 99.0117C77.0251 99.0117 99.0117 77.0251 99.0117 50C99.0117 22.9749 77.0251 0.988322 50 0.988322Z" fill="#0068B5"/>
<path d="M43.2464 75.7655C42.3915 75.7655 41.5483 75.5664 40.7837 75.184C40.0192 74.8016 39.3541 74.2463 38.8414 73.5623L25.3354 55.5541C24.9015 54.9755 24.5859 54.3172 24.4064 53.6167C24.227 52.9161 24.1872 52.1871 24.2895 51.4712C24.3918 50.7553 24.6341 50.0666 25.0026 49.4444C25.371 48.8221 25.8585 48.2786 26.437 47.8447C27.0155 47.4108 27.6739 47.0951 28.3744 46.9157C29.0749 46.7362 29.804 46.6965 30.5198 46.7988C31.2357 46.9011 31.9244 47.1434 32.5467 47.5119C33.1689 47.8803 33.7125 48.3678 34.1464 48.9463L42.9824 60.7268L65.6767 26.6858C66.4873 25.4716 67.7468 24.6289 69.1785 24.343C70.6102 24.0571 72.0968 24.3515 73.3116 25.1613C74.5263 25.9711 75.3698 27.2302 75.6565 28.6617C75.9433 30.0932 75.6499 31.58 74.8408 32.7952L47.8289 73.3131C47.3403 74.0459 46.683 74.6508 45.9124 75.0772C45.1417 75.5036 44.2801 75.739 43.3997 75.7637C43.3486 75.7646 43.2975 75.7655 43.2464 75.7655Z" fill="#0068B5"/>
</svg>
