<svg width="24" height="24" viewBox="0 0 20 18" fill="none" xmlns="http://www.w3.org/2000/svg">
<path d="M18.25 0.75H1.75C1.35218 0.75 0.970644 0.908035 0.68934 1.18934C0.408035 1.47064 0.25 1.85218 0.25 2.25V15.75C0.25 16.1478 0.408035 16.5294 0.68934 16.8107C0.970644 17.092 1.35218 17.25 1.75 17.25H18.25C18.6478 17.25 19.0294 17.092 19.3107 16.8107C19.592 16.5294 19.75 16.1478 19.75 15.75V2.25C19.75 1.85218 19.592 1.47064 19.3107 1.18934C19.0294 0.908035 18.6478 0.75 18.25 0.75ZM1.75 11.25H3.25C3.44891 11.25 3.63968 11.171 3.78033 11.0303C3.92098 10.8897 4 10.6989 4 10.5C4 10.3011 3.92098 10.1103 3.78033 9.96967C3.63968 9.82902 3.44891 9.75 3.25 9.75H1.75V8.25H3.25C3.44891 8.25 3.63968 8.17098 3.78033 8.03033C3.92098 7.88968 4 7.69891 4 7.5C4 7.30109 3.92098 7.11032 3.78033 6.96967C3.63968 6.82902 3.44891 6.75 3.25 6.75H1.75V5.25H3.25C3.44891 5.25 3.63968 5.17098 3.78033 5.03033C3.92098 4.88968 4 4.69891 4 4.5C4 4.30109 3.92098 4.11032 3.78033 3.96967C3.63968 3.82902 3.44891 3.75 3.25 3.75H1.75V2.25H5.5V15.75H1.75V11.25ZM18.25 15.75H7V2.25H18.25V15.75Z" fill="#243757"/>
</svg>
